<?xml version="1.0" encoding="UTF-8" standalone="no"?>
<svg
   xmlns:dc="http://purl.org/dc/elements/1.1/"
   xmlns:cc="http://creativecommons.org/ns#"
   xmlns:rdf="http://www.w3.org/1999/02/22-rdf-syntax-ns#"
   xmlns:svg="http://www.w3.org/2000/svg"
   xmlns="http://www.w3.org/2000/svg"
   xmlns:sodipodi="http://sodipodi.sourceforge.net/DTD/sodipodi-0.dtd"
   xmlns:inkscape="http://www.inkscape.org/namespaces/inkscape"
   width="420mm"
   height="420mm"
   viewBox="0 0 420 420"
   version="1.1"
   id="svg8"
   inkscape:version="1.0.2 (e86c870879, 2021-01-15)"
   sodipodi:docname="oopsie daisy.svg">
  <defs
     id="defs2" />
  <sodipodi:namedview
     id="base"
     pagecolor="#ffffff"
     bordercolor="#666666"
     borderopacity="1.0"
     inkscape:pageopacity="0.0"
     inkscape:pageshadow="2"
     inkscape:zoom="0.49497474"
     inkscape:cx="1074.5024"
     inkscape:cy="825.39851"
     inkscape:document-units="mm"
     inkscape:current-layer="layer1"
     inkscape:document-rotation="0"
     showgrid="false"
     inkscape:window-width="1296"
     inkscape:window-height="1023"
     inkscape:window-x="624"
     inkscape:window-y="27"
     inkscape:window-maximized="0" />
  <metadata
     id="metadata5">
    <rdf:RDF>
      <cc:Work
         rdf:about="">
        <dc:format>image/svg+xml</dc:format>
        <dc:type
           rdf:resource="http://purl.org/dc/dcmitype/StillImage" />
        <dc:title />
      </cc:Work>
    </rdf:RDF>
  </metadata>
  <g inkscape:label="Layer 1" inkscape:groupmode="layer" id="layer1">
    <path
        class="petals"
       d="M 521.32812 489.9668 C 484.30567 488.65159 441.59536 611.00608 478.22461 860.96289 L 498.4375 860.99805 C 497.63503 774.89474 497.94539 676.5515 516.60352 608.09375 C 511.1074 688.8556 507.55127 799.66517 512.95898 861.00781 L 530.30469 860.98438 C 589.68551 616.26573 558.35058 491.28201 521.32812 489.9668 z M 287.30273 543.6543 C 242.9024 543.5453 258.00762 674.76042 427.37109 888.45703 L 444.89648 878.41797 C 401.01538 804.25037 351.96062 718.92794 333.7832 650.3418 C 369.53049 723.02309 422.02817 820.7587 457.47852 871.1875 L 472.48633 862.52148 C 406.74093 639.85944 325.26824 543.7475 287.30273 543.6543 z M 748.92383 559.96875 C 709.65918 560.29442 620.92423 649.77712 536.05664 862.49805 L 553.54102 872.60938 C 596.03224 797.64177 645.62488 712.62864 696.11914 662.64258 C 650.85231 729.84481 592.19528 824.0357 566.11133 879.85547 L 581.14453 888.47852 C 771.64039 689.04867 796.31219 559.5757 748.92383 559.96875 z M 120.91602 704.68945 C 48.428664 706.18367 113.83335 825.2971 397.12109 937.61523 L 407.26367 920.18555 C 332.0618 877.82676 246.78489 828.38774 196.64258 778.05078 C 264.0548 823.17664 358.53903 881.65164 414.5332 907.6543 L 423.18359 892.66797 C 277.43072 754.3104 168.92712 703.69978 120.91602 704.68945 z M 896.12305 731.75391 C 843.5747 732.16836 734.49212 775.20318 585.36914 892.6543 L 595.43945 910.125 C 669.83881 866.38056 755.42811 817.47814 824.22852 799.35742 C 751.32018 834.99334 653.27781 887.32611 602.69141 922.66602 L 611.38672 937.62891 C 914.24468 848.76028 983.70363 731.06315 896.12305 731.75391 z M 156.1543 910.29688 C -78.517103 910.76171 -4.0332791 1053.4636 395.58008 995.26758 L 395.62109 975.11719 C 309.24871 975.91716 210.59742 975.60781 141.92578 957.00781 C 222.93986 962.48684 334.09468 966.03144 395.62891 960.64062 L 395.60742 943.34961 C 295.87909 919.30129 215.9725 910.17839 156.1543 910.29688 z M 785.73633 929.4043 C 737.12292 929.53122 679.55143 933.65028 612.94922 943.34961 L 612.91016 963.5 C 699.28249 962.69991 797.93181 963.00926 866.60352 981.60938 C 785.58938 976.13031 674.4345 972.58578 612.90039 977.97656 L 612.92383 995.26758 C 1038.687 1097.9353 1103.1533 928.57555 785.73633 929.4043 z M 397.14648 1000.9863 C -87.429624 1143.1781 25.500812 1359.1658 423.16211 1045.9629 L 413.0918 1028.4902 C 338.69239 1072.2347 253.10318 1121.139 184.30273 1139.2598 C 257.21107 1103.6239 355.25158 1051.289 405.83789 1015.9492 L 397.14648 1000.9863 z M 611.4082 1001 L 601.26562 1018.4297 C 676.46749 1060.7884 761.74636 1110.2293 811.88867 1160.5664 C 744.47645 1115.4405 649.99002 1056.9655 593.99609 1030.9629 L 585.34375 1045.9473 C 951.15821 1393.1994 1082.3281 1187.7107 611.4082 1001 z M 427.38672 1050.1328 C 79.049506 1414.8078 285.18057 1545.5703 472.47461 1076.1172 L 454.99023 1066.0078 C 412.49908 1140.9754 362.90438 1225.9866 312.41016 1275.9727 C 357.67696 1208.7705 416.33409 1114.5793 442.41797 1058.7598 L 427.38672 1050.1328 z M 581.1582 1050.1582 L 563.63281 1060.1992 C 607.51403 1134.3668 656.57064 1219.6892 674.74805 1288.2754 C 639.00078 1215.5941 586.50293 1117.8564 551.05273 1067.4277 L 536.04102 1076.0918 C 678.67702 1559.1585 895.33963 1446.5808 581.1582 1050.1582 z M 495.57031 1077.6055 L 478.22461 1077.627 C 359.46297 1567.0679 603.56316 1577.5678 530.30469 1077.6543 L 510.0918 1077.6152 C 510.89434 1163.7185 510.58399 1262.0598 491.92578 1330.5176 C 497.42193 1249.7558 500.97798 1138.9479 495.57031 1077.6055 z "
       transform="scale(0.26458333)" />
    <path
        class="stamen"
       d="m 66.840647,83.851874 -3.410001,1.056684 -3.48149,-0.789887 -2.620115,-2.424806 -1.056683,-3.410001 0.789886,-3.481489 2.424807,-2.620116 3.410001,-1.056683 3.481489,0.789886 2.620115,2.424807 1.056684,3.410001 -0.789887,3.481489 z"
       transform="matrix(3.9119923,-0.83010363,0.83923213,3.8694412,-179.19839,7.1957731)" />
    <g transform="translate(0.99504816,4.1716723)" />
    <path
        class="stem"
       d="M 184.27053,49.939873 C 130.4979,50.271745 90.742795,106.63116 123.44686,217.31312 75.011673,-14.361148 343.34638,-16.171887 331.15562,389.94651 364.52728,161.19544 260.36389,49.470243 184.27053,49.939873 Z M 397.03171,244.79154 c -22.01728,-0.0367 -61.20797,28.98683 -57.39236,97.21578 9.92632,-51.47085 10.45724,-36.95129 44.61793,-74.72206 -26.67984,39.35007 -36.16383,25.58986 -42.66922,74.90396 15.82849,-36.77298 34.24801,-37.17134 45.83803,-47.93816 28.01022,-26.02078 28.09756,-42.95676 17.32505,-47.93196 -2.17667,-1.00528 -4.79679,-1.52268 -7.71943,-1.52756 z m -126.28068,77.09244 c -5.1227,-0.047 -9.5905,0.87366 -12.84985,2.60657 -10.08177,5.36025 -8.60142,18.49086 20.82249,34.78445 12.17499,6.74193 30.14721,4.48684 48.5929,30.81981 -10.39892,-37.36269 -18.50186,-25.36455 -47.72835,-52.187 36.3822,24.55564 35.70306,13.21493 49.61144,51.77515 -1.75368,-49.21814 -36.25022,-67.5952 -58.44863,-67.79898 z" />
  </g>
</svg>
