<?xml version="1.0" encoding="UTF-8" standalone="no"?>
<svg
   xmlns:dc="http://purl.org/dc/elements/1.1/"
   xmlns:cc="http://creativecommons.org/ns#"
   xmlns:rdf="http://www.w3.org/1999/02/22-rdf-syntax-ns#"
   xmlns:svg="http://www.w3.org/2000/svg"
   xmlns="http://www.w3.org/2000/svg"
   xmlns:sodipodi="http://sodipodi.sourceforge.net/DTD/sodipodi-0.dtd"
   xmlns:inkscape="http://www.inkscape.org/namespaces/inkscape"
   version="1.1"
   id="svg2"
   width="978"
   height="978"
   viewBox="0 0 978 978"
   sodipodi:docname="logo.svg"
   inkscape:version="1.0.2 (e86c870879, 2021-01-15)">
  <metadata
     id="metadata9">
    <rdf:RDF>
      <cc:Work
         rdf:about="">
        <dc:format>image/svg+xml</dc:format>
        <dc:type
           rdf:resource="http://purl.org/dc/dcmitype/StillImage" />
      </cc:Work>
    </rdf:RDF>
  </metadata>
  <defs
     id="defs7" />
  <sodipodi:namedview
     pagecolor="#ffffff"
     bordercolor="#666666"
     borderopacity="1"
     objecttolerance="10"
     gridtolerance="10"
     guidetolerance="10"
     inkscape:pageopacity="0"
     inkscape:pageshadow="2"
     inkscape:window-width="1416"
     inkscape:window-height="1023"
     id="namedview5"
     showgrid="false"
     inkscape:zoom="0.8599182"
     inkscape:cx="430.58518"
     inkscape:cy="398.31417"
     inkscape:window-x="0"
     inkscape:window-y="27"
     inkscape:window-maximized="0"
     inkscape:current-layer="g10" />
  <g
     inkscape:groupmode="layer"
     inkscape:label="Image"
     id="g10">
    <path
       d="m 648.62765,307.1339 c -37.843,2.392 -64.282,42.3 -45.51,77.486 10.649,19.96 32.751,32.432 48.51,48.004 25.516,25.212 44.48,51.943 58.573,84.996 58.204,136.513 -34.661,311.182 -184.573,329.844 -37.216,4.633 -76.129,3.962 -112,-8.539 -124.554,-43.408 -197.98,-181.154 -154.997,-307.305 12.487,-36.649 34.569,-68.894 61.997,-95.996 18.655,-18.433 45.258,-32.778 53.91,-59.004 13.942,-42.256 -25.836,-78.083 -66.91,-67.115 -32.91,8.788 -62.314,40.643 -84.166,65.115 -65.922,73.826 -94.786,166.08 -87.924,264 13.754,196.236 202.005,347.239 396.09,321.718 187.677,-24.678 329.805,-202.435 307.155,-391.718 -9.808,-81.964 -46.897,-154.765 -105.155,-213 -21.239,-21.231 -52.339,-50.551 -85,-48.486 z"
       class="tire" />
    <path
       d="m 481.62765,197.0589 c -40.817,6.375 -51,44.036 -51,79.561 v 203 c 0,33.788 -4.808,71.768 1.46,105 5.87,31.128 35.808,50.279 66.54,45.701 43.276,-6.448 42.987,-55.329 43,-88.701 v -182 c 0,-36.226 1.386,-72.887 -1.089,-109 -2.031,-29.625 -26.983,-58.548 -58.911,-53.561"
       class="frame" />
    <path
       d="m 341.62765,28.058902 c -32.292,5.0851 -52.448,40.1126 -40.536,70.561 5.991,15.314998 19.917,25.674998 34.536,32.137998 82.605,36.522 187.673,37.647 274,14.978 23.37,-6.137 52.102,-13.213 68.7,-32.131 24.097,-27.464198 13.41,-72.678898 -22.7,-83.779698 -21.72,-6.677 -42.341,2.4705 -63,8.3672 -25.03,7.1444 -51.946,12.2473 -78,13.3881 -34.883,1.5275 -70.008,-1.5716 -104,-9.615 -22.711,-5.3739 -45.001,-17.6857 -69,-13.9066"
       class="saddle" />
  </g>
</svg>
